<svg width="50" height="49" viewBox="0 0 50 49" fill="none" xmlns="http://www.w3.org/2000/svg">
<path fill-rule="evenodd" clip-rule="evenodd" d="M4.375 0.875C3.28098 0.875 2.23177 1.28984 1.45818 2.02827C0.684597 2.76669 0.25 3.76821 0.25 4.8125V44.1875C0.25 45.2318 0.684597 46.2333 1.45818 46.9717C2.23177 47.7102 3.28098 48.125 4.375 48.125H45.625C46.719 48.125 47.7682 47.7102 48.5418 46.9717C49.3154 46.2333 49.75 45.2318 49.75 44.1875V4.8125C49.75 3.76821 49.3154 2.76669 48.5418 2.02827C47.7682 1.28984 46.719 0.875 45.625 0.875H4.375ZM15.9992 18.8064C16.2674 16.6329 17.9132 14.8059 20.1724 14.4331C23.6786 13.8556 26.4836 13.8596 29.8537 14.4226C32.1019 14.798 33.7312 16.6211 33.9994 18.7841L36 35H14L15.9992 18.8064ZM12.625 40.25V37.625H37.375V40.25H12.625ZM9.93687 25.8125C9.85464 24.9393 9.85464 24.0607 9.93687 23.1875H5.75V25.8125H9.93687ZM11.2651 18.4454C11.6506 17.6502 12.1113 16.8902 12.6415 16.1748L9.017 14.1759L7.642 16.4491L11.2651 18.4454ZM16.277 12.7032C17.0236 12.2006 17.8197 11.7582 18.6585 11.3894L16.5657 7.931L14.1842 9.2435L16.277 12.7032ZM23.625 10.1216C24.5398 10.0431 25.4602 10.0431 26.375 10.1216V6.125H23.625V10.1216ZM31.3429 11.3894C32.1758 11.7578 32.972 12.1975 33.7216 12.7032L35.8157 9.2435L33.4342 7.931L31.3429 11.3894ZM37.3585 16.1735C37.8851 16.8862 38.3485 17.6461 38.7349 18.4468L42.358 16.4491L40.983 14.1759L37.3585 16.1735ZM40.0631 23.1875C40.1454 24.0607 40.1454 24.9393 40.0631 25.8125H44.25V23.1875H40.0631Z" fill="#F24E1E"/>
</svg>
